<svg id="black" xmlns="http://www.w3.org/2000/svg" viewBox="0 0 44.32 25.06"><defs><style>.cls-1{fill:#231f20;}.cls-2{fill:none;stroke:#231f20;stroke-miterlimit:10;stroke-width:0.15px;}</style></defs><title>Artboard 1</title><path class="cls-1" d="M4.55,12.41V1.91C4.55.66,4.81.25,6.17.21H8.45c5.35,0,7.88,2.17,7.88,6,0,3.63-2.77,6.18-6.83,6.18H4.55M44.24.21V.08h-7V.21h.58c1.47,0,1.8.36,1.82,1.55V12.41H26.54V1.94h0c0-1.29.27-1.7,1.69-1.73h.85V.08h-7V.21h.57c1.45,0,1.72.43,1.73,1.71V24.84H22c-1.89,0-2.29-1.18-3.12-2.92-2.58-5.39-4.15-8.64-10.74-9.38H9.52c3.73,0,9-.89,9-6.35,0-6.22-7.18-6.1-9-6.11H.08V.21H.54c1.54,0,1.82.4,1.82,1.72V23.4c0,1.07-.37,1.42-1.69,1.44H.08V25H7.26v-.13h-1c-1.41,0-1.67-.44-1.67-1.73h0V12.54H6.42A8.2,8.2,0,0,1,11.53,14c3.65,2.88,3.85,11,10,11h7.72v-.13h-.87c-1.53,0-1.8-.41-1.8-1.73h0V12.54H39.67V23.3c0,1.18-.35,1.55-1.82,1.55h-.58V25h7v-.13h-.59c-1.4,0-1.76-.33-1.81-1.39V1.6C41.9.54,42.26.21,43.66.21h.59ZM22.09.21h0s0,0,0,0m6.74,0h0s0,0,0,0m8.56,0h0s0,0,0,0m6.74,0h0s0,0,0,0M37.39,24.84h0m6.74,0h0m-37.29,0h0m22,0h0"/><path class="cls-2" d="M4.55,12.41V1.91C4.55.66,4.81.25,6.17.21H8.45c5.35,0,7.88,2.17,7.88,6,0,3.63-2.77,6.18-6.83,6.18H4.55M44.24.21V.08h-7V.21h.58c1.47,0,1.8.36,1.82,1.55V12.41H26.54V1.94h0c0-1.29.27-1.7,1.69-1.73h.85V.08h-7V.21h.57c1.45,0,1.72.43,1.73,1.71V24.84H22c-1.89,0-2.29-1.18-3.12-2.92-2.58-5.39-4.15-8.64-10.74-9.38H9.52c3.73,0,9-.89,9-6.35,0-6.22-7.18-6.1-9-6.11H.08V.21H.54c1.54,0,1.82.4,1.82,1.72V23.4c0,1.07-.37,1.42-1.69,1.44H.08V25H7.26v-.13h-1c-1.41,0-1.67-.44-1.67-1.73h0V12.54H6.42A8.2,8.2,0,0,1,11.53,14c3.65,2.88,3.85,11,10,11h7.72v-.13h-.87c-1.53,0-1.8-.41-1.8-1.73h0V12.54H39.67V23.3c0,1.18-.35,1.55-1.82,1.55h-.58V25h7v-.13h-.59c-1.4,0-1.76-.33-1.81-1.39V1.6C41.9.54,42.26.21,43.66.21h.59ZM22.09.21h0s0,0,0,0m6.74,0h0s0,0,0,0m8.56,0h0s0,0,0,0m6.74,0h0s0,0,0,0M37.39,24.84h0m6.74,0h0m-37.29,0h0m22,0h0"/></svg>